<?xml version="1.0" encoding="utf-8"?>
<!-- Generator: Adobe Illustrator 16.0.0, SVG Export Plug-In . SVG Version: 6.00 Build 0)  -->
<!DOCTYPE svg PUBLIC "-//W3C//DTD SVG 1.1//EN" "http://www.w3.org/Graphics/SVG/1.1/DTD/svg11.dtd">
<svg version="1.1" id="Layer_1" xmlns="http://www.w3.org/2000/svg" xmlns:xlink="http://www.w3.org/1999/xlink" x="0px" y="0px"
	 width="500px" height="500px" viewBox="0 0 500 500" enable-background="new 0 0 500 500" xml:space="preserve">
<circle cx="251" cy="249" r="251"/>
<path fill="#5EBFBC" d="M127.14,36.21c-37.2,21.66-68.21,52.77-89.75,90.04L250,249L127.14,36.21z"/>
<path fill="#A3D1CF" d="M250,2.87c-44.78,0.18-86.73,12.3-122.86,33.34L250,249V2.87z"/>
<path fill="#A3D1CF" d="M464.21,125.33c-21.82-37.4-53.22-68.53-90.82-90.05L250,249L464.21,125.33z"/>
<path fill="#5EBFBC" d="M373.83,463.48c37.66-21.66,69.06-52.971,90.82-90.551L250,249L373.83,463.48z"/>
<path fill="#A3D1CF" d="M37.39,126.25C16.5,162.38,4.52,204.29,4.43,249H250L37.39,126.25z"/>
<path fill="#A3D1CF" d="M36.96,372c21.47,37.46,52.49,68.75,89.75,90.54L250,249L36.96,372z"/>
<path fill="#A3D1CF" d="M250,496.13c0.36,0.01,0.71,0.01,1.07,0.01c44.689,0,86.609-11.88,122.76-32.659L250,249V496.13z"/>
<path fill="#A3D1CF" d="M250,249l214.65,123.93c21.02-36.3,33.06-78.46,33.06-123.43V249H250z"/>
<path fill="#5EBFBC" d="M4.43,249v0.5c0,44.59,11.83,86.41,32.53,122.5L250,249H4.43z"/>
<path fill="#5EBFBC" d="M126.71,462.54c36.22,21.19,78.34,33.41,123.29,33.59V249L126.71,462.54z"/>
<path fill="#5EBFBC" d="M497.71,249c-0.09-45.09-12.28-87.34-33.5-123.67L250,249H497.71z"/>
<path fill="#5EBFBC" d="M373.39,35.28C337.34,14.65,295.58,2.86,251.07,2.86c-0.36,0-0.71,0-1.07,0.01V249L373.39,35.28z"/>
<text transform="matrix(1 0 0 1 226 54)" font-family="'MyriadPro-Bold'" font-size="48">12</text>
<text transform="matrix(1 0 0 1 456.5 268.5)" font-family="'MyriadPro-Bold'" font-size="48">3</text>
<text transform="matrix(1 0 0 1 238.5 479)" font-family="'MyriadPro-Bold'" font-size="48">6</text>
<text transform="matrix(1 0 0 1 17.375 271.5)" font-family="'MyriadPro-Bold'" font-size="48">9</text>
<text transform="matrix(1 0 0 1 430 155)" font-family="'MyriadPro-Bold'" font-size="48">2</text>
<text transform="matrix(1 0 0 1 348 78.625)" font-family="'MyriadPro-Bold'" font-size="48">1</text>
<text transform="matrix(1 0 0 1 132.71 455.5)" font-family="'MyriadPro-Bold'" font-size="48">7</text>
<text transform="matrix(1 0 0 1 348 455.5)" font-family="'MyriadPro-Bold'" font-size="48">5</text>
<text transform="matrix(1 0 0 1 420.5 372.9297)" font-family="'MyriadPro-Bold'" font-size="48">4</text>
<text transform="matrix(1 0 0 1 122.375 83.1396)" font-family="'MyriadPro-Bold'" font-size="48">11</text>
<text transform="matrix(1 0 0 1 48.375 155)" font-family="'MyriadPro-Bold'" font-size="48">10</text>
<text transform="matrix(1 0 0 1 42.375 376.9297)" font-family="'MyriadPro-Bold'" font-size="48">8</text>
</svg>
